<svg width="26" height="26" viewBox="0 0 26 26" fill="none" xmlns="http://www.w3.org/2000/svg">
<path d="M13 5.6875H17.0625V6.5H13V5.6875Z" fill="white"/>
<path d="M13 7.3125H17.0625V8.125H13V7.3125Z" fill="white"/>
<path d="M13 8.9375H17.0625V9.75H13V8.9375Z" fill="white"/>
<path d="M13 10.5625H17.0625V11.375H13V10.5625Z" fill="white"/>
<path d="M8.47925 6.42606C8.7768 6.52463 9.0982 6.52463 9.39575 6.42606C9.46781 6.68035 9.62058 6.90431 9.83103 7.0642C10.0415 7.22409 10.2982 7.31124 10.5625 7.3125H10.9688C11.0765 7.3125 11.1798 7.3553 11.256 7.43149C11.3322 7.50767 11.375 7.61101 11.375 7.71875V8.9375H12.1875V7.71875C12.1875 7.39552 12.0591 7.08552 11.8305 6.85696C11.602 6.6284 11.292 6.5 10.9688 6.5H10.5625C10.4548 6.5 10.3514 6.4572 10.2752 6.38101C10.1991 6.30483 10.1562 6.20149 10.1562 6.09375V5.93856C10.4166 5.64529 10.561 5.26715 10.5625 4.875V4.0625C10.5625 3.63152 10.3913 3.2182 10.0865 2.91345C9.7818 2.6087 9.36848 2.4375 8.9375 2.4375C8.50652 2.4375 8.0932 2.6087 7.78845 2.91345C7.48371 3.2182 7.3125 3.63152 7.3125 4.0625V4.875C7.31397 5.26715 7.45841 5.64529 7.71875 5.93856V6.09375C7.71875 6.20149 7.67595 6.30483 7.59976 6.38101C7.52358 6.4572 7.42024 6.5 7.3125 6.5H6.90625C6.58302 6.5 6.27302 6.6284 6.04446 6.85696C5.8159 7.08552 5.6875 7.39552 5.6875 7.71875V8.9375H6.5V7.71875C6.5 7.61101 6.5428 7.50767 6.61899 7.43149C6.69517 7.3553 6.79851 7.3125 6.90625 7.3125H7.3125C7.5768 7.31124 7.83352 7.22409 8.04397 7.0642C8.25442 6.90431 8.40719 6.68035 8.47925 6.42606ZM8.125 4.0625C8.125 3.84701 8.2106 3.64035 8.36298 3.48798C8.51535 3.3356 8.72201 3.25 8.9375 3.25C9.15299 3.25 9.35965 3.3356 9.51202 3.48798C9.6644 3.64035 9.75 3.84701 9.75 4.0625V4.875C9.75 5.09049 9.6644 5.29715 9.51202 5.44952C9.35965 5.6019 9.15299 5.6875 8.9375 5.6875C8.72201 5.6875 8.51535 5.6019 8.36298 5.44952C8.2106 5.29715 8.125 5.09049 8.125 4.875V4.0625Z" fill="white"/>
<path d="M13.4062 4.875H16.6562C16.764 4.875 16.8673 4.8322 16.9435 4.75601C17.0197 4.67983 17.0625 4.57649 17.0625 4.46875V2.84375C17.0625 2.73601 17.0197 2.63267 16.9435 2.55649C16.8673 2.4803 16.764 2.4375 16.6562 2.4375H13.4062C13.2985 2.4375 13.1952 2.4803 13.119 2.55649C13.0428 2.63267 13 2.73601 13 2.84375V4.46875C13 4.57649 13.0428 4.67983 13.119 4.75601C13.1952 4.8322 13.2985 4.875 13.4062 4.875ZM13.8125 3.25H16.25V4.0625H13.8125V3.25Z" fill="white"/>
<path d="M25.1875 11.375C25.1869 10.7287 24.9298 10.1091 24.4729 9.65214C24.0159 9.19516 23.3963 8.93815 22.75 8.9375H20.3125V2.84375C20.3125 2.73601 20.2697 2.63267 20.1935 2.55649C20.1173 2.4803 20.014 2.4375 19.9062 2.4375H18.6875V1.21875C18.6875 1.11101 18.6447 1.00767 18.5685 0.931488C18.4923 0.855301 18.389 0.8125 18.2812 0.8125H4.46875C4.36101 0.8125 4.25767 0.855301 4.18149 0.931488C4.1053 1.00767 4.0625 1.11101 4.0625 1.21875V10.1562H2.84375C2.30523 10.1569 1.78895 10.3711 1.40815 10.7519C1.02736 11.1327 0.813145 11.649 0.8125 12.1875V23.1562C0.813145 23.6948 1.02736 24.2111 1.40815 24.5918C1.78895 24.9726 2.30523 25.1869 2.84375 25.1875H19.9062C20.4288 25.1857 20.9305 24.9826 21.3071 24.6204C21.6837 24.2582 21.9063 23.7648 21.9286 23.2428L25.1729 11.4831C25.1826 11.4479 25.1875 11.4115 25.1875 11.375ZM19.5 3.25V12.1875H18.6875V3.25H19.5ZM4.875 1.625H17.875V12.1875H9.91819L8.00597 10.2753C7.9298 10.1991 7.82649 10.1563 7.71875 10.1562H4.875V1.625ZM21.125 23.1562C21.125 23.4795 20.9966 23.7895 20.768 24.018C20.5395 24.2466 20.2295 24.375 19.9062 24.375H2.84375C2.52052 24.375 2.21052 24.2466 1.98196 24.018C1.7534 23.7895 1.625 23.4795 1.625 23.1562V12.1875C1.625 11.8643 1.7534 11.5543 1.98196 11.3257C2.21052 11.0972 2.52052 10.9688 2.84375 10.9688H7.55056L9.46278 12.881C9.53895 12.9572 9.64226 13 9.75 13H19.9062C20.2295 13 20.5395 13.1284 20.768 13.357C20.9966 13.5855 21.125 13.8955 21.125 14.2188V23.1562ZM21.9375 20.1561V14.2188C21.9369 13.7507 21.775 13.2971 21.479 12.9345C21.183 12.5719 20.771 12.3224 20.3125 12.2281V9.75H22.75C23.1721 9.74978 23.5778 9.91383 23.881 10.2074C24.1843 10.501 24.3615 10.9011 24.375 11.323L21.9375 20.1561Z" fill="white"/>
<path d="M15.4375 16.6562H13.4062V14.625C13.4062 14.5173 13.3634 14.4139 13.2873 14.3377C13.2111 14.2616 13.1077 14.2188 13 14.2188H9.75C9.64226 14.2188 9.53892 14.2616 9.46274 14.3377C9.38655 14.4139 9.34375 14.5173 9.34375 14.625V16.6562H7.3125C7.20476 16.6562 7.10142 16.6991 7.02524 16.7752C6.94905 16.8514 6.90625 16.9548 6.90625 17.0625V20.3125C6.90625 20.4202 6.94905 20.5236 7.02524 20.5998C7.10142 20.6759 7.20476 20.7188 7.3125 20.7188H9.34375V22.75C9.34375 22.8577 9.38655 22.9611 9.46274 23.0373C9.53892 23.1134 9.64226 23.1562 9.75 23.1562H13C13.1077 23.1562 13.2111 23.1134 13.2873 23.0373C13.3634 22.9611 13.4062 22.8577 13.4062 22.75V20.7188H15.4375C15.5452 20.7188 15.6486 20.6759 15.7248 20.5998C15.8009 20.5236 15.8438 20.4202 15.8438 20.3125V17.0625C15.8438 16.9548 15.8009 16.8514 15.7248 16.7752C15.6486 16.6991 15.5452 16.6562 15.4375 16.6562ZM15.0312 19.9062H13C12.8923 19.9062 12.7889 19.9491 12.7127 20.0252C12.6366 20.1014 12.5938 20.2048 12.5938 20.3125V22.3438H10.1562V20.3125C10.1562 20.2048 10.1134 20.1014 10.0373 20.0252C9.96108 19.9491 9.85774 19.9062 9.75 19.9062H7.71875V17.4688H9.75C9.85774 17.4688 9.96108 17.4259 10.0373 17.3498C10.1134 17.2736 10.1562 17.1702 10.1562 17.0625V15.0312H12.5938V17.0625C12.5938 17.1702 12.6366 17.2736 12.7127 17.3498C12.7889 17.4259 12.8923 17.4688 13 17.4688H15.0312V19.9062Z" fill="white"/>
</svg>
