<svg width="29" height="29" viewBox="0 0 29 29" fill="none" xmlns="http://www.w3.org/2000/svg">
<path d="M28.5719 13.7654C28.8086 13.7654 29.0005 13.5735 29.0005 13.3367V7.9069C29.0005 7.90187 28.9999 7.89696 28.9997 7.89193C28.9996 7.8869 28.9993 7.88199 28.999 7.87696C28.9962 7.83655 28.9878 7.79781 28.9746 7.76129C28.974 7.75958 28.9737 7.75786 28.9731 7.75615C28.9726 7.75483 28.9718 7.75363 28.9713 7.75232C28.9641 7.73358 28.9557 7.7154 28.946 7.69803C28.9449 7.69597 28.9436 7.69409 28.9424 7.69203C28.9334 7.67671 28.9236 7.66203 28.9129 7.64797C28.9108 7.64517 28.9087 7.64225 28.9065 7.63945C28.8949 7.62488 28.8822 7.61111 28.8688 7.59819C28.8658 7.59539 28.8628 7.59276 28.8598 7.59002C28.847 7.57842 28.8337 7.56751 28.8196 7.5575C28.8178 7.55625 28.8162 7.55488 28.8145 7.55368C28.7987 7.54287 28.7822 7.53327 28.765 7.52459C28.7618 7.52293 28.7585 7.52139 28.7551 7.51984C28.7204 7.50333 28.6831 7.49144 28.644 7.48476C28.6397 7.48401 28.6354 7.48338 28.6311 7.48281C28.6117 7.48013 28.592 7.47824 28.5719 7.47824H7.97743C7.95726 7.47824 7.9376 7.48013 7.91817 7.48281C7.91388 7.48338 7.9096 7.48407 7.90531 7.48476C7.86617 7.49139 7.82891 7.50333 7.79416 7.51984C7.79085 7.52139 7.78753 7.52293 7.78427 7.52459C7.76713 7.53327 7.75056 7.54282 7.73484 7.55368C7.73307 7.55488 7.73141 7.5563 7.7297 7.5575C7.71558 7.56751 7.70227 7.57842 7.68952 7.59002C7.68655 7.59276 7.68347 7.59534 7.68055 7.59819C7.66707 7.61111 7.65449 7.62488 7.64278 7.63945C7.64055 7.6422 7.63855 7.64511 7.63644 7.64797C7.62575 7.66203 7.61586 7.67671 7.60695 7.69203C7.60575 7.69409 7.60443 7.69597 7.60329 7.69803C7.59357 7.7154 7.58529 7.73352 7.57803 7.75226C7.57752 7.75358 7.57672 7.75478 7.5762 7.75615C7.57557 7.75786 7.57534 7.75958 7.57472 7.76129C7.56151 7.79787 7.55311 7.83661 7.55031 7.87702C7.54997 7.88199 7.54974 7.88696 7.54957 7.89193C7.5494 7.89696 7.54883 7.90187 7.54883 7.90696V10.4228C7.54883 10.6595 7.74067 10.8514 7.97743 10.8514C8.21419 10.8514 8.40604 10.6595 8.40604 10.4228V8.85143L15.9765 15.475L8.40604 20.3108V12.3086C8.40604 12.0719 8.21419 11.88 7.97743 11.88C7.74067 11.88 7.54883 12.0719 7.54883 12.3086V21.0621C7.54883 21.0659 7.54928 21.0696 7.5494 21.0733C7.54723 21.1197 7.55249 21.1669 7.56603 21.2133C7.61946 21.3961 7.78702 21.5217 7.97743 21.5217H28.5719C28.7623 21.5217 28.9299 21.3961 28.9833 21.2133C28.9968 21.1669 29.002 21.1197 28.9999 21.0733C29 21.0696 29.0005 21.0659 29.0005 21.0621V15.2226C29.0005 14.9859 28.8086 14.794 28.5719 14.794C28.3351 14.794 28.1433 14.9859 28.1433 15.2226V20.3108L20.5729 15.475L28.1433 8.85138V13.3367C28.1433 13.5735 28.3351 13.7654 28.5719 13.7654ZM27.0561 20.6335H9.49321L16.6484 16.0629L16.663 16.0756C17.1525 16.504 17.7135 16.7182 18.2746 16.7181C18.8356 16.718 19.3969 16.5038 19.8863 16.0756L19.9009 16.063L27.0561 20.6335ZM19.322 15.4305C18.676 15.9956 17.8734 15.9956 17.2275 15.4305L16.9662 15.2019C16.9657 15.2014 16.965 15.2009 16.9645 15.2004L9.11821 8.33551H27.4311L19.322 15.4305Z" fill="#676767"/>
<path d="M6.11116 11.7085H0.428604C0.191843 11.7085 0 11.9004 0 12.1371C0 12.3738 0.191843 12.5657 0.428604 12.5657H6.11116C6.34792 12.5657 6.53976 12.3738 6.53976 12.1371C6.53976 11.9004 6.34786 11.7085 6.11116 11.7085Z" fill="#676767"/>
<path d="M6.11194 14.2257H2.26845C2.03169 14.2257 1.83984 14.4176 1.83984 14.6543C1.83984 14.891 2.03169 15.0829 2.26845 15.0829H6.11194C6.3487 15.0829 6.54055 14.891 6.54055 14.6543C6.54055 14.4176 6.34865 14.2257 6.11194 14.2257Z" fill="#676767"/>
<path d="M6.11207 16.4343H4.19032C3.95356 16.4343 3.76172 16.6262 3.76172 16.8629C3.76172 17.0996 3.95356 17.2915 4.19032 17.2915H6.11207C6.34883 17.2915 6.54067 17.0996 6.54067 16.8629C6.54067 16.6262 6.34877 16.4343 6.11207 16.4343Z" fill="#676767"/>
</svg>
