<svg width="36" height="36" viewBox="0 0 36 36" fill="none" xmlns="http://www.w3.org/2000/svg">
<g clip-path="url(#clip0_467_148)">
<path d="M27.9174 14.8532C27.9113 14.8532 27.9052 14.8532 27.8988 14.8529C27.1533 14.8291 26.3831 14.5887 25.5678 14.3341C24.064 13.8644 22.3595 13.3319 20.4355 14.108C20.0616 14.2581 19.6377 13.973 19.6377 13.5694V8.13603C19.6377 7.98216 19.6987 7.83467 19.8073 7.7258C22.7775 4.75087 25.4622 6.46087 28.0582 8.11425C29.9575 9.32403 31.9215 10.5756 34.1736 10.2461C34.6274 10.1805 34.9847 10.6694 34.7757 11.0828C34.3097 12.0034 33.6281 12.8079 32.0104 12.7847C32.2984 13.1412 32.6572 13.7755 31.9805 13.9985C30.9591 14.3347 30.0167 14.0409 29.1118 13.5987C29.1998 13.7828 29.2741 13.9849 29.2741 14.2087C29.2744 14.8794 28.3834 14.8532 27.9174 14.8532ZM22.4652 12.551C23.7548 12.551 24.9108 12.9121 25.9139 13.2254C26.6191 13.4457 27.2868 13.6542 27.8576 13.6884C27.6849 13.3107 27.5394 12.7954 27.8739 12.245C28.0823 11.9021 28.4766 11.9256 28.7794 12.1088C29.4463 12.4758 30.0554 12.8105 30.6369 12.9322L30.1831 12.3707C29.8423 11.9488 30.2455 11.3139 30.7707 11.4411C31.9099 11.7157 32.5704 11.6568 32.9888 11.4445C30.8926 11.2962 29.0732 10.1372 27.4346 9.09322C24.7201 7.36435 22.923 6.39351 20.799 8.38135V12.7646C21.3762 12.6128 21.9321 12.551 22.4652 12.551Z" fill="#4493B9"/>
<path d="M8.06342 14.8404C7.71358 14.8404 7.18809 14.8227 6.9149 14.5739C6.62777 14.3126 6.72213 13.8986 6.86322 13.5874C5.97658 14.0353 5.01619 14.3187 3.99222 13.925C3.34858 13.6777 3.70422 13.0729 3.98903 12.7208C2.37106 12.7434 1.68967 11.9398 1.22371 11.0189C1.01555 10.6075 1.37148 10.1137 1.82671 10.1825C4.04216 10.5094 5.98761 9.2668 7.87035 8.06545C10.4777 6.40132 13.1743 4.68028 16.1895 7.65928C16.2999 7.76845 16.362 7.91709 16.362 8.07241V13.5058C16.362 13.9108 15.9341 14.1971 15.5595 14.0426C13.6992 13.2735 12.0931 13.7932 10.5404 14.2963C9.68254 14.5736 8.85803 14.8404 8.06342 14.8404ZM8.12555 12.1813C8.51806 12.7303 8.29945 13.2965 8.11684 13.6783C8.71577 13.6661 9.41109 13.4411 10.1828 13.1911C11.5798 12.7388 13.277 12.1892 15.2007 12.6975V8.32006C13.0364 6.32148 11.2268 7.30103 8.49483 9.04412C6.87309 10.0791 5.07251 11.2279 3.0089 11.3798C3.42696 11.5926 4.08745 11.6524 5.22871 11.3772C5.75274 11.2503 6.15861 11.8832 5.81632 12.3068L5.32045 12.9199C5.90516 12.818 6.54242 12.4601 7.3289 11.9854C7.42296 11.9288 7.875 11.8306 8.12555 12.1813Z" fill="#4493B9"/>
<path d="M24.2672 23.5829C23.7298 21.7304 21.5443 21.0484 20.2384 20.6408L19.9899 20.5627C19.5021 20.4071 19.0408 20.313 18.5984 20.2532V6.74187C20.2143 6.46752 21.449 5.07397 21.449 3.39706C21.449 1.5239 19.9097 0 18.0177 0C16.1257 0 14.5861 1.5239 14.5861 3.39706C14.5861 5.07397 15.8208 6.46752 17.4368 6.74187V20.169C16.9244 20.1632 16.4404 20.1911 15.9823 20.2189C14.7138 20.2964 13.7122 20.3577 12.755 19.6226C12.2981 19.2719 11.5287 18.5278 11.509 17.4858C11.4866 16.2883 12.5001 15.4367 12.7034 15.2782C12.9562 15.0811 13.0012 14.7162 12.8041 14.4633C12.607 14.2104 12.242 14.1654 11.9892 14.3625C11.5961 14.6691 10.316 15.802 10.348 17.5076C10.3767 19.0362 11.4251 20.0659 12.0475 20.5438C13.3493 21.5434 14.6627 21.4635 16.0528 21.3782C16.5037 21.3506 16.9618 21.3248 17.4368 21.3306V26.1052C17.0634 26.1003 16.7115 26.1203 16.3788 26.1406C15.4864 26.1952 14.8413 26.2347 14.2162 25.7548C13.9184 25.5257 13.4164 25.0426 13.4039 24.3795C13.3897 23.6157 14.0487 23.0626 14.1808 22.9596C14.4337 22.7625 14.479 22.3975 14.2818 22.1446C14.085 21.8918 13.7198 21.8462 13.4669 22.0436C13.1737 22.2721 12.2191 23.1175 12.2429 24.4007C12.2644 25.5501 13.0451 26.3192 13.509 26.6754C14.4784 27.4195 15.4803 27.3585 16.4497 27.2993C16.7714 27.2796 17.0983 27.2613 17.4368 27.2668V31.345C17.1691 31.34 16.9212 31.354 16.697 31.3676C16.0725 31.4051 15.7305 31.4132 15.3883 31.1504C15.2509 31.0454 14.931 30.7603 14.924 30.386C14.9162 29.9613 15.3197 29.6347 15.3656 29.5987C15.6188 29.4015 15.6641 29.0366 15.4672 28.7837C15.2701 28.5303 14.9055 28.4853 14.6523 28.6821C14.4392 28.8482 13.745 29.4628 13.763 30.4075C13.7787 31.2547 14.3454 31.8138 14.6813 32.0716C15.3839 32.6111 16.0876 32.5681 16.7682 32.5266C16.9862 32.5132 17.2077 32.5007 17.4371 32.506V35.4194C17.4371 35.7399 17.6972 36 18.0177 36C18.3382 36 18.5984 35.7399 18.5984 35.4194V32.7315C19.0495 32.8755 19.6734 33.1037 19.7861 33.4925C19.8708 33.7854 19.6737 34.1431 19.5489 34.3304C19.1363 34.9476 20.0976 35.5999 20.5142 34.9757C20.9299 34.3536 21.0638 33.7291 20.9015 33.1691C20.603 32.1402 19.4339 31.7755 18.8056 31.5793L18.691 31.5433C18.6593 31.5331 18.6291 31.5264 18.5981 31.5174V27.4085C18.7026 27.434 18.8083 27.4628 18.9163 27.4973L19.0974 27.5542C19.829 27.7824 21.053 28.1645 21.2838 28.9605C21.4365 29.4866 21.1535 30.0681 20.8893 30.4635C20.477 31.0811 21.4377 31.7328 21.8549 31.1089C22.4303 30.2478 22.6185 29.3931 22.3993 28.6371C21.9945 27.2418 20.3975 26.7434 19.4432 26.4458L19.2687 26.3912C19.0367 26.3172 18.8146 26.2646 18.5978 26.2222V21.4246C18.9319 21.4775 19.2765 21.5544 19.6368 21.6691L19.8923 21.7495C20.9752 22.0875 22.7883 22.653 23.1518 23.9066C23.3939 24.7413 22.9642 25.6358 22.5613 26.2391C22.1487 26.8563 23.11 27.5081 23.5269 26.8842C24.3015 25.7246 24.5572 24.5834 24.2672 23.5829C23.7301 21.7304 24.5572 24.5834 24.2672 23.5829ZM15.7474 3.39706C15.7474 2.16435 16.7658 1.16129 18.0177 1.16129C19.2696 1.16129 20.2877 2.16435 20.2877 3.39706C20.2877 4.62977 19.2693 5.63313 18.0177 5.63313C16.7661 5.63313 15.7474 4.63006 15.7474 3.39706Z" fill="#4493B9"/>
<path d="M23.355 20.4765C22.7221 20.4765 22.5624 19.5648 23.1576 19.3497C24.0494 19.0275 24.635 18.2796 24.6495 17.4446C24.6632 16.6529 24.1444 15.9071 23.3277 15.5445C23.0345 15.4144 22.9024 15.0712 23.0324 14.778C23.1628 14.4851 23.5063 14.3536 23.7989 14.4827C25.0426 15.0349 25.832 16.2052 25.8105 17.4647C25.7876 18.7856 24.9013 19.9542 23.5524 20.4416C23.4874 20.4651 23.4206 20.4765 23.355 20.4765Z" fill="#4493B9"/>
<path d="M16.1614 35.5555C15.8278 35.5555 15.5006 35.4391 15.2414 35.224C14.9444 34.9772 14.7623 34.6215 14.7417 34.2482C14.7017 33.5186 15.2779 32.866 16.0258 32.7937C16.3437 32.7629 16.6288 32.9966 16.6596 33.3157C16.6904 33.6347 16.4566 33.9187 16.1376 33.9494C15.8978 33.9727 15.8293 34.238 16.0307 34.362C16.2465 34.495 16.4871 34.3475 16.697 34.5751C17.1119 35.0251 16.6683 35.5555 16.1614 35.5555Z" fill="#4493B9"/>
</g>
<defs>
<clipPath id="clip0_467_148">
<rect width="36" height="36" fill="white"/>
</clipPath>
</defs>
</svg>
