<svg width="27" height="27" viewBox="0 0 27 27" fill="none" xmlns="http://www.w3.org/2000/svg">
<g clip-path="url(#clip0_816_367)">
<path d="M26.8522 5.82166C26.8498 5.78232 26.8421 5.74321 26.8292 5.70608C26.8243 5.69158 26.8206 5.67773 26.8144 5.66367C26.7925 5.61467 26.7619 5.57007 26.7243 5.53184L21.3243 0.131836C21.2861 0.094043 21.2413 0.063501 21.1921 0.0417481C21.1787 0.0355957 21.165 0.0318603 21.1512 0.0270264C21.113 0.0138428 21.0734 0.00593263 21.0332 0.00351562C21.0255 0.00505371 21.0174 0 21.0079 0H7.50794C6.26604 0.00153809 5.25947 1.00789 5.25793 2.25V5.56194C2.1644 6.92622 0.167969 9.98833 0.167969 13.3695C0.167969 16.7506 2.1644 19.8127 5.25793 21.177V24.75C5.25947 25.9921 6.26604 26.9985 7.50794 27H24.6079C25.85 26.9985 26.8566 25.9921 26.8579 24.75V5.85C26.8579 5.84011 26.8531 5.83154 26.8522 5.82166ZM25.3216 5.4H21.9079C21.6594 5.4 21.4579 5.19851 21.4579 4.95V1.53633L25.3216 5.4ZM1.07742 13.3695C1.07478 11.3396 1.87986 9.39243 3.31511 7.95718C4.75037 6.52192 6.6978 5.71685 8.72742 5.71948C8.98318 5.71948 9.23696 5.73201 9.48745 5.7564C12.967 6.10027 15.7675 8.76555 16.2829 12.2238C16.3427 12.6029 16.3741 12.9858 16.377 13.3695C16.3803 14.8107 15.9729 16.2229 15.203 17.441C14.5924 18.4144 13.7695 19.2371 12.7959 19.8472C10.4384 21.3278 7.46289 21.4108 5.02656 20.0639C2.59023 18.7172 1.07786 16.1532 1.07742 13.3695ZM13.9538 20.1294C14.0154 20.0817 14.0762 20.0344 14.1364 19.9854C14.3586 19.8066 14.5713 19.6165 14.7741 19.4161C14.9745 19.2133 15.1645 19.0009 15.3434 18.7789C15.3924 18.7187 15.4396 18.6574 15.4873 18.5959C15.5418 18.5247 15.6009 18.4573 15.653 18.3847L19.4892 22.2256C19.7432 22.4771 19.8862 22.8199 19.8862 23.1774C19.8862 23.5351 19.7432 23.8777 19.4892 24.1295C18.9579 24.643 18.1152 24.643 17.5839 24.1295L13.7427 20.295C13.8152 20.2423 13.8831 20.1839 13.9538 20.1294ZM24.6079 26.1H7.50794C6.7624 26.1 6.15793 25.4955 6.15793 24.75V21.5284C6.18584 21.5374 6.21506 21.5433 6.24341 21.5519C6.31548 21.5739 6.38843 21.5914 6.46138 21.6116C6.62969 21.6567 6.79932 21.7017 6.9707 21.7354C7.05486 21.7529 7.13901 21.7692 7.22405 21.7841C7.39543 21.8142 7.56836 21.838 7.74194 21.858C7.81951 21.8667 7.89597 21.8777 7.97376 21.8843C8.22314 21.9056 8.47407 21.9195 8.72742 21.9195C10.215 21.9206 11.6766 21.5312 12.9662 20.7901L16.945 24.7649C17.5033 25.376 18.3523 25.6313 19.155 25.4292C19.9579 25.2272 20.585 24.6008 20.7875 23.7981C20.9904 22.9955 20.7359 22.1462 20.1251 21.5875L16.148 17.608C16.8892 16.3184 17.2787 14.8568 17.2774 13.3695C17.2774 13.0845 17.2638 12.8017 17.2361 12.5213C17.0441 10.5552 16.1737 8.71743 14.7745 7.32327C13.1742 5.71443 10.9968 4.81289 8.72742 4.81948C8.47407 4.81948 8.22314 4.83354 7.97376 4.85464C7.89597 4.86145 7.81885 4.87222 7.7415 4.88123C7.56836 4.90056 7.39631 4.92517 7.22493 4.95505C7.13945 4.97 7.0542 4.98625 6.96939 5.00405C6.8002 5.03921 6.63232 5.08052 6.46577 5.12644C6.39106 5.14666 6.31636 5.16467 6.24077 5.18708C6.21287 5.19565 6.18452 5.20159 6.15662 5.2106V2.25C6.15662 1.50447 6.76108 0.9 7.50662 0.9H20.5579V4.95C20.5579 5.69553 21.1624 6.3 21.9079 6.3H25.9579V24.75C25.9579 25.4955 25.3537 26.1 24.6079 26.1Z" fill="#676767"/>
<path d="M18.759 3.15001C18.759 2.9015 18.5575 2.70001 18.309 2.70001H8.40898C8.16047 2.70001 7.95898 2.9015 7.95898 3.15001C7.95898 3.39852 8.16047 3.60001 8.40898 3.60001H18.309C18.5575 3.60001 18.759 3.39852 18.759 3.15001Z" fill="#676767"/>
<path d="M23.7094 10.8H18.3094C18.0609 10.8 17.8594 11.0015 17.8594 11.25C17.8594 11.4985 18.0609 11.7 18.3094 11.7H23.7094C23.9579 11.7 24.1594 11.4985 24.1594 11.25C24.1594 11.0015 23.9579 10.8 23.7094 10.8Z" fill="#676767"/>
<path d="M23.7094 13.5H18.3094C18.0609 13.5 17.8594 13.7015 17.8594 13.95C17.8594 14.1985 18.0609 14.4 18.3094 14.4H23.7094C23.9579 14.4 24.1594 14.1985 24.1594 13.95C24.1594 13.7015 23.9579 13.5 23.7094 13.5Z" fill="#676767"/>
<path d="M24.1582 16.65C24.1582 16.4015 23.9567 16.2 23.7082 16.2H17.8582C17.6097 16.2 17.4082 16.4015 17.4082 16.65C17.4082 16.8985 17.6097 17.1 17.8582 17.1H23.7082C23.9567 17.1 24.1582 16.8985 24.1582 16.65Z" fill="#676767"/>
<path d="M24.159 19.35C24.159 19.1015 23.9575 18.9 23.709 18.9H19.659C19.4105 18.9 19.209 19.1015 19.209 19.35C19.209 19.5985 19.4105 19.8 19.659 19.8H23.709C23.9575 19.8 24.159 19.5985 24.159 19.35Z" fill="#676767"/>
<path d="M18.7578 5.84999C18.7578 5.60148 18.5563 5.39999 18.3078 5.39999H14.7078C14.4593 5.39999 14.2578 5.60148 14.2578 5.84999C14.2578 6.0985 14.4593 6.29999 14.7078 6.29999H18.3078C18.5563 6.29999 18.7578 6.0985 18.7578 5.84999Z" fill="#676767"/>
<path d="M24.1578 8.55001C24.1578 8.3015 23.9563 8.10001 23.7078 8.10001H16.9578C16.7093 8.10001 16.5078 8.3015 16.5078 8.55001C16.5078 8.79852 16.7093 9.00001 16.9578 9.00001H23.7078C23.9563 9.00001 24.1578 8.79852 24.1578 8.55001Z" fill="#676767"/>
<path d="M7.05937 11.25H10.2094C10.4579 11.25 10.6594 11.0485 10.6594 10.8C10.6594 10.5515 10.4579 10.35 10.2094 10.35H7.05937C6.81086 10.35 6.60938 10.5515 6.60938 10.8C6.60938 11.0485 6.81086 11.25 7.05937 11.25Z" fill="#676767"/>
<path d="M12.4586 13.5C12.4586 13.2515 12.2571 13.05 12.0086 13.05H5.25859C5.01008 13.05 4.80859 13.2515 4.80859 13.5C4.80859 13.7485 5.01008 13.95 5.25859 13.95H12.0086C12.2571 13.95 12.4586 13.7485 12.4586 13.5Z" fill="#676767"/>
<path d="M10.2094 15.75H7.05937C6.81086 15.75 6.60938 15.9515 6.60938 16.2C6.60938 16.4485 6.81086 16.65 7.05937 16.65H10.2094C10.4579 16.65 10.6594 16.4485 10.6594 16.2C10.6594 15.9515 10.4579 15.75 10.2094 15.75Z" fill="#676767"/>
<path d="M11.9306 19.305C13.0282 18.7205 13.9383 17.8376 14.5559 16.7586C14.5915 16.6964 14.6302 16.6362 14.6636 16.5731C14.681 16.5406 14.6946 16.507 14.7113 16.4744C14.7796 16.343 14.8462 16.2117 14.9051 16.0772C14.9642 15.9427 15.0105 15.8148 15.0587 15.6825C15.0725 15.6443 15.0901 15.607 15.1037 15.5683C16.248 12.2405 14.644 8.59175 11.4185 7.18528C8.19265 5.77881 4.42763 7.08663 2.76826 10.1898C2.24597 11.1674 1.97394 12.2592 1.97658 13.3677C1.97241 15.746 3.22155 17.9506 5.26391 19.1692C7.30627 20.388 9.8395 20.4405 11.9306 19.3076V19.305ZM5.92309 18.5032C5.43332 18.2362 4.98464 17.9 4.59067 17.505C4.31733 17.2318 4.07145 16.9328 3.85634 16.6118C3.74999 16.4527 3.65222 16.2894 3.56235 16.1218C2.20795 13.5644 2.92558 10.401 5.25095 8.67855C7.57631 6.95611 10.8116 7.19166 12.8632 9.2327C14.6801 11.0668 15.0888 13.8713 13.871 16.1477V16.1514C13.3345 17.1554 12.5118 17.9774 11.5077 18.5135C9.76567 19.4599 7.66223 19.4566 5.92309 18.5049V18.5032Z" fill="#676767"/>
<path d="M24.609 21.6C24.3605 21.6 24.159 21.8015 24.159 22.05V23.85C24.159 24.0985 23.9575 24.3 23.709 24.3H21.909C21.6605 24.3 21.459 24.5015 21.459 24.75C21.459 24.9985 21.6605 25.2 21.909 25.2H23.709C24.4547 25.2 25.059 24.5955 25.059 23.85V22.05C25.059 21.8015 24.8575 21.6 24.609 21.6Z" fill="#676767"/>
</g>
<defs>
<clipPath id="clip0_816_367">
<rect width="27" height="27" fill="white"/>
</clipPath>
</defs>
</svg>
